<?xml version="1.0" encoding="UTF-8"?>
<svg id="Layer_2" data-name="Layer 2" xmlns="http://www.w3.org/2000/svg" viewBox="0 0 604.37 160.63">
  <defs>
    <style>
      .cls-1 {
        fill: #fe7840;
      }

      .cls-2 {
        fill: #e22140;
      }
    </style>
  </defs>
  <g id="Layer_1-2" data-name="Layer 1">
    <g>
      <g>
        <path class="cls-1" d="M158.14,149.5v-57.93c0-17.1-3.66-30.24-10.95-39.44-5.61-7.06-12.79-11.41-21.55-13.04-2.64-.49-5.44-.74-8.38-.74-5.49,0-10.43.74-14.81,2.21,1.73,4.25,2.6,9.11,2.6,14.55,0,2.15-.13,4.19-.4,6.16,2.89-1.15,6.19-1.73,9.9-1.73,4.95,0,9.19,1.03,12.68,3.08,2.45,1.44,4.55,3.38,6.29,5.83,4.22,5.93,6.33,14.28,6.34,25.02v34.82c0,4.77-3.87,8.63-8.64,8.63h-33.32c-4.77,0-8.64-3.86-8.64-8.64v-34.82c0-3.34.2-6.45.6-9.33-5.08,3.03-11.38,5-18.9,5.88v38.27c0,4.78-3.87,8.65-8.64,8.64H22.59s-4.28,0-4.28,0v-48.76c0-9.66,1.43-17.44,4.28-23.36v-29.7c-4.37,2.33-8.17,5.57-11.39,9.69C3.75,54.36.01,68.53.01,87.33v62.17c0,1.48.37,2.89,1.05,4.12.79,1.47,2,2.67,3.46,3.46,1.23.68,2.63,1.06,4.13,1.06h140.84c4.77,0,8.64-3.87,8.64-8.64Z"/>
        <path class="cls-2" d="M119.72,84.59c4.09-6.35,6.58-13.67,7.5-21.96.27-2.42.41-4.92.41-7.51,0-5.74-.66-11.07-1.99-16.02-1.32-4.92-3.28-9.43-5.9-13.57-5.28-8.28-12.81-14.6-22.59-18.97C87.34,2.19,75.52,0,61.67,0H8.64C3.88,0,0,3.87,0,8.64v140.84c0,1.5.38,2.9,1.06,4.13.79,1.47,2,2.67,3.46,3.46,1.22.67,2.63,1.05,4.12,1.05h13.95v-47.89s39.07,0,39.07,0c3.2,0,6.29-.11,9.28-.35,6.63-.52,12.73-1.64,18.3-3.34,2.76-.85,5.39-1.84,7.89-2.97,9.79-4.44,17.32-10.77,22.59-18.98ZM61,90.58H22.59s0-25.76,0-25.76V19.65s38.4,0,38.4,0c14.45,0,25.41,3.08,32.86,9.26,3.86,3.2,6.72,7.08,8.58,11.65,1.73,4.25,2.6,9.11,2.6,14.55,0,2.15-.13,4.19-.4,6.16-1.15,8.36-4.74,15.05-10.78,20.04-1.24,1.03-2.58,1.97-4.02,2.83-5.08,3.03-11.38,5-18.9,5.88-3.1.37-6.43.56-9.95.56Z"/>
      </g>
      <g>
        <path d="M239.96,43.05c8.63,0,16,1.46,22.13,4.39,6.12,2.93,10.81,7.11,14.06,12.54,3.25,5.43,4.87,12.04,4.87,19.81,0,4.58-.69,9.11-2.08,13.58-1.39,4.47-3.59,8.55-6.63,12.22-3.04,3.67-7.06,6.61-12.06,8.79-5.01,2.18-11.08,3.27-18.21,3.27h-16.93v41.38h-17.09V43.05h31.95ZM242.04,101.2c4.26,0,7.83-.72,10.7-2.16,2.88-1.44,5.14-3.28,6.79-5.51,1.65-2.24,2.82-4.55,3.51-6.95.69-2.4,1.04-4.55,1.04-6.47,0-2.13-.35-4.39-1.04-6.79-.69-2.4-1.84-4.63-3.43-6.71-1.6-2.08-3.78-3.78-6.55-5.11-2.77-1.33-6.23-2-10.38-2h-17.57v41.7h16.93Z"/>
        <path d="M300.67,34.9h16.46v124.13h-16.46V34.9Z"/>
        <path d="M370.16,160.63c-6.29,0-11.98-1.31-17.09-3.91s-9.16-6.52-12.14-11.74c-2.98-5.22-4.47-11.66-4.47-19.33s1.57-14.06,4.71-19.49c3.14-5.43,7.29-9.61,12.46-12.54,5.16-2.93,10.78-4.39,16.85-4.39,6.39,0,11.63,1.36,15.74,4.07,4.1,2.72,7.32,5.89,9.67,9.5l-1.12,2.56,1.6-13.26h15.18v66.94h-16.46v-16.77l1.76,3.99c-.43.85-1.33,2.05-2.72,3.59-1.39,1.55-3.22,3.17-5.51,4.87-2.29,1.71-4.95,3.12-7.99,4.23s-6.53,1.68-10.46,1.68ZM374.64,147.21c3.51,0,6.66-.64,9.43-1.92,2.77-1.28,5.11-3.09,7.03-5.43,1.92-2.34,3.25-5.11,3.99-8.31v-13.9c-.85-2.98-2.29-5.56-4.31-7.75-2.02-2.18-4.45-3.91-7.27-5.19-2.82-1.28-5.94-1.92-9.35-1.92-3.83,0-7.35.93-10.54,2.8-3.2,1.87-5.75,4.45-7.67,7.75-1.92,3.3-2.88,7.14-2.88,11.5s.98,7.94,2.96,11.34c1.97,3.41,4.61,6.1,7.91,8.07,3.3,1.97,6.87,2.96,10.7,2.96Z"/>
        <path d="M451.48,92.09l1.44,15.34-.64-2.08c2.24-4.79,5.7-8.65,10.38-11.58,4.69-2.93,10.22-4.39,16.62-4.39s11.47,1.87,15.58,5.59c4.1,3.73,6.2,8.58,6.31,14.54v49.53h-16.46v-43.77c-.11-3.41-1.12-6.2-3.04-8.39-1.92-2.18-4.9-3.33-8.95-3.43-3.62,0-6.92,1.09-9.91,3.27-2.98,2.18-5.33,5.14-7.03,8.87-1.7,3.73-2.56,8.04-2.56,12.94v30.51h-16.46v-66.94h14.7Z"/>
        <path d="M560.91,43.05c11.71,0,20.95,2.4,27.72,7.19,6.76,4.79,10.14,12.14,10.14,22.05,0,6.39-1.46,11.88-4.39,16.46-2.93,4.58-6.98,8.12-12.14,10.62-5.17,2.5-11.26,3.91-18.29,4.23l-2.56-9.11c8.2.21,15.52,1.63,21.97,4.23,6.44,2.61,11.55,6.23,15.34,10.86,3.78,4.63,5.67,10.14,5.67,16.54,0,5.86-1.09,10.89-3.27,15.1-2.18,4.21-5.11,7.62-8.79,10.22-3.67,2.61-7.83,4.53-12.46,5.75-4.63,1.23-9.45,1.84-14.46,1.84h-35.31V43.05h30.83ZM563.95,93.21c5.96,0,10.33-1.7,13.1-5.11,2.77-3.41,4.15-7.45,4.15-12.14,0-5.75-1.78-9.93-5.35-12.54-3.57-2.61-8.28-3.91-14.14-3.91h-14.54v33.71h16.77ZM564.59,143.22c4.15,0,7.91-.61,11.26-1.84,3.35-1.22,6.02-3.09,7.99-5.59,1.97-2.5,2.96-5.67,2.96-9.51,0-4.26-1.15-7.59-3.43-9.98-2.29-2.4-5.22-4.1-8.79-5.11-3.57-1.01-7.27-1.52-11.1-1.52h-16.29v33.55h17.41Z"/>
      </g>
    </g>
  </g>
</svg>