<svg width="735" height="176" viewBox="0 0 735 176" fill="none" xmlns="http://www.w3.org/2000/svg">
<path d="M258 172.396C260.104 161.057 261.675 149.086 262.699 136.447C263.751 123.825 264.284 111.07 264.284 98.1644C264.284 85.2757 263.765 72.537 262.754 59.9484C261.77 47.3264 260.24 35.3381 258.164 24H306.796C317.616 24 326.796 25.7674 334.337 29.2689C341.905 32.737 347.916 37.3389 352.369 43.0747C356.85 48.8104 359.759 55.1297 361.112 62.0159C362.492 68.9188 362.369 75.8051 360.729 82.6913C359.09 89.5942 355.989 95.8968 351.44 101.633C346.877 107.335 340.867 111.937 333.408 115.438C325.935 118.956 317.069 120.707 306.796 120.707H291.059C291.893 138.715 293.764 155.955 296.687 172.396H258ZM290.677 89.3607C290.677 92.5621 290.677 95.3633 290.677 97.7643C290.677 100.165 290.677 102.666 290.677 105.234C290.677 107.768 290.704 110.936 290.786 114.705H304.064C308.613 114.705 312.944 112.954 317.069 109.436C321.222 105.934 324.747 101.166 327.67 95.1632C330.58 89.1607 332.397 82.3411 333.135 74.6879C333.859 67.0014 333.039 58.9313 330.676 50.4778C329.146 44.7087 326.796 39.7733 323.627 35.6716C320.485 31.5365 316.277 29.469 311.004 29.469C307.097 29.469 303.873 30.9696 301.332 33.9375C298.778 36.8721 296.769 40.707 295.321 45.409C293.86 50.1276 292.808 55.1964 292.152 60.6154C291.524 66.0009 291.127 71.2531 290.95 76.3553C290.759 81.4741 290.677 85.8093 290.677 89.3607Z" fill="white"/>
<path d="M366.047 172.396C367.686 164.259 368.97 155.238 369.926 145.318C370.91 135.363 371.538 125.026 371.839 114.305C372.167 103.55 372.167 92.8122 371.839 82.091C371.538 71.3865 370.91 61.0489 369.926 51.078C368.97 41.1238 367.686 32.1034 366.047 24H402.002C400.363 32.1034 399.024 41.1238 398.013 51.078C397.029 61.0489 396.374 71.3865 396.046 82.091C395.718 92.8122 395.718 103.55 396.046 114.305C396.374 125.026 397.029 135.347 398.013 145.251C399.024 155.122 400.363 164.175 402.002 172.396H366.047Z" fill="white"/>
<path d="M452.543 157.389C449.988 163.492 446.491 168.111 442.051 171.262C437.639 174.363 433.117 175.93 428.5 175.93C424.019 175.93 419.811 174.53 415.877 171.729C411.97 168.928 408.992 164.726 406.916 159.123C404.88 153.521 404.375 146.551 405.386 138.181C406.287 130.762 408.609 124.342 412.325 118.907C416.068 113.438 420.59 109.219 425.877 106.235C431.15 103.217 436.532 101.699 441.997 101.699C445.384 101.699 448.663 102.333 451.832 103.567C455.029 104.767 457.952 106.635 460.575 109.169C461.846 106.068 462.775 102.283 463.362 97.8311C463.977 93.3959 463.649 88.6105 462.378 83.4917C461.354 79.2733 459.756 76.0553 457.57 73.821C455.384 71.6034 453.28 70.4863 451.286 70.4863C449.824 70.4863 448.581 71.0865 447.57 72.287C446.587 73.4542 445.999 75.2549 445.822 77.6893C445.453 83.2583 444.428 87.5601 442.762 90.628C441.081 93.6627 439.073 95.8136 436.751 97.0974C434.415 98.398 432.12 99.1983 429.866 99.4984C425.74 100.082 422.448 99.2817 419.975 97.0974C417.53 94.9298 416.287 92.1453 416.26 88.7606C416.219 85.3925 417.653 82.1412 420.576 79.0232C424.757 74.4546 429.552 71.0032 434.948 68.6855C440.371 66.3345 445.781 65.1507 451.177 65.1507C455.794 65.1507 460.206 66.0844 464.4 67.9519C468.581 69.786 472.228 72.5538 475.329 76.2887C478.416 79.9902 480.643 84.7256 481.995 90.4947C483.375 96.2804 483.58 103.133 482.597 111.037C481.941 116.472 481.408 122.175 481.012 128.177C480.602 134.18 480.971 140.816 482.105 148.052C483.225 155.255 485.766 163.375 489.7 172.396H453.745C453.116 169.828 452.734 167.294 452.597 164.792C452.447 162.308 452.433 159.84 452.543 157.389ZM433.254 133.513C432.079 139.298 431.696 144.351 432.106 148.652C432.502 152.921 433.472 156.239 435.002 158.59C436.56 160.908 438.349 162.058 440.357 162.058C442.461 162.058 444.647 160.641 446.914 157.79C449.209 154.955 451.259 150.486 453.089 144.384C454.906 138.248 456.176 130.295 456.914 120.507C456.914 116.639 456.272 113.821 455.002 112.037C453.718 110.27 452.174 109.369 450.357 109.369C447.434 109.369 444.251 111.47 440.794 115.639C437.325 119.774 434.811 125.743 433.254 133.513Z" fill="white"/>
<path d="M495.948 68.8188H531.904C530.155 77.2723 528.762 85.0589 527.751 92.1619C526.767 99.2816 526.125 106.101 525.838 112.637C525.579 119.14 525.633 125.709 526.002 132.379C526.467 121.041 527.887 111.17 530.264 102.766C532.628 94.3628 535.578 87.4266 539.116 81.9576C542.682 76.4553 546.493 72.3369 550.537 69.6191C554.581 66.868 558.515 65.4841 562.34 65.4841C565.974 65.4841 569.239 66.6846 572.121 69.0856C574.99 71.4866 577.107 75.0214 578.46 79.69C579.908 84.5921 580.481 89.5442 580.154 94.5629C579.853 99.5484 579.279 104.767 578.405 110.236C577.531 115.672 576.902 121.508 576.547 127.777C576.178 134.046 576.574 140.849 577.749 148.185C578.951 155.522 581.465 163.592 585.29 172.396H549.389C548.187 167.594 547.75 162.291 548.078 156.456C548.406 150.636 549.13 144.567 550.264 138.248C551.384 131.895 552.572 125.609 553.816 119.373C555.045 113.154 556.001 107.218 556.657 101.566C557.34 95.8801 557.422 90.8114 556.876 86.3595C556.507 83.5583 555.81 81.4908 554.799 80.1569C553.816 78.823 552.641 78.156 551.302 78.156C548.816 78.156 546.07 80.2236 543.051 84.3586C540.059 88.4604 537.327 94.4962 534.854 102.5C532.409 110.503 530.811 120.357 530.046 132.045C529.281 143.7 529.895 157.156 531.904 172.396H495.948C497.943 162.175 499.445 152.921 500.429 144.651C501.44 136.347 501.959 128.344 501.959 120.641C501.959 112.904 501.44 104.901 500.429 96.6305C499.445 88.327 497.943 79.0564 495.948 68.8188Z" fill="white"/>
<path d="M627.353 172.396C629.456 161.057 631.027 149.086 632.052 136.447C633.104 123.825 633.637 111.07 633.637 98.1644C633.637 85.2757 633.104 72.537 632.052 59.9484C631.027 47.3264 629.456 35.3381 627.353 24H681.996C685.083 24 688.499 24.3001 692.214 24.867C695.957 25.4006 699.673 26.3677 703.362 27.7349C707.077 29.1188 710.438 31.0363 713.471 33.4706C716.531 35.9217 718.962 38.9896 720.793 42.6745C722.61 46.326 723.525 50.7779 723.525 56.0134C723.525 60.4653 722.241 64.8171 719.7 69.0856C717.145 73.354 713.634 77.2557 709.154 80.7571C704.7 84.2753 699.618 87.0764 693.908 89.1607C698.17 89.1607 702.678 90.1277 707.46 92.0285C712.268 93.896 716.722 96.6138 720.847 100.165C725 103.733 728.388 107.935 731.011 112.771C733.661 117.623 735 122.941 735 128.711C735 134.046 733.921 139.348 731.776 144.584C729.659 149.786 726.421 154.488 722.05 158.656C717.678 162.792 712.132 166.126 705.438 168.661C698.73 171.162 690.876 172.396 681.887 172.396H627.353ZM659.865 94.1628V141.049C659.865 146.918 660.48 151.62 661.723 155.122C662.953 158.64 664.51 161.241 666.368 162.925C668.226 164.576 670.166 165.643 672.215 166.126C674.291 166.626 676.176 166.86 677.898 166.86C681.463 166.86 684.728 165.709 687.679 163.392C690.63 161.041 693.28 157.973 695.657 154.188C698.02 150.42 700.028 146.368 701.668 142.049C704.755 133.913 705.67 126.743 704.4 120.507C703.116 114.288 700.301 109.102 695.93 104.967C691.559 100.799 686.204 97.7976 679.865 95.9635C673.554 94.0961 666.887 93.4958 659.865 94.1628ZM681.723 29.1355C680.37 29.1355 678.471 29.9858 676.04 31.6699C673.636 33.3206 671.177 36.1384 668.663 40.1401C666.177 44.1418 664.073 49.6441 662.324 56.6137C660.603 63.5499 659.783 72.3536 659.865 83.0247V89.1607C671.341 88.4937 680.48 85.6759 687.296 80.6904C694.14 75.6717 697.747 68.2686 698.116 58.4811C698.225 55.73 697.965 52.6787 697.351 49.344C696.763 46.0092 695.821 42.8079 694.509 39.7399C693.198 36.672 691.463 34.1376 689.318 32.1367C687.16 30.1359 684.633 29.1355 681.723 29.1355Z" fill="white"/>
<path d="M172.011 162.474V99.4794C172.011 80.8844 168.03 66.5956 160.1 56.5913C153.997 48.9141 146.187 44.1837 136.658 42.4112C133.786 41.8784 130.74 41.6065 127.542 41.6065C121.57 41.6065 116.197 42.4112 111.432 44.0097C113.314 48.6312 114.261 53.9162 114.261 59.8318C114.261 62.1698 114.119 64.3881 113.825 66.5304C116.969 65.2798 120.559 64.6491 124.594 64.6491C129.979 64.6491 134.591 65.7691 138.388 67.9984C141.053 69.5643 143.337 71.6739 145.23 74.3381C149.82 80.7865 152.115 89.8665 152.126 101.545V139.41C152.126 144.597 147.917 148.794 142.728 148.794H106.483C101.294 148.794 97.0845 144.597 97.0845 139.399V101.535C97.0845 97.9026 97.302 94.5207 97.7372 91.389C92.2112 94.6839 85.3582 96.826 77.1781 97.7831V139.399C77.1781 144.597 72.9684 148.805 67.7797 148.794H19.9064V95.7713C19.9064 85.2667 21.4619 76.8065 24.5621 70.3689V38.0724C19.8085 40.606 15.6749 44.1293 12.1723 48.6096C4.0683 59.0162 0 74.425 0 94.8687V162.474C0 164.083 0.402479 165.617 1.14217 166.954C2.00152 168.553 3.31773 169.858 4.90589 170.716C6.24387 171.456 7.76676 171.869 9.39843 171.869H162.602C167.79 171.869 172 167.661 172 162.474H172.011Z" fill="url(#paint0_linear_4_36)"/>
<path d="M130.229 92.0154C134.678 85.108 137.387 77.1455 138.388 68.1278C138.681 65.4953 138.834 62.7759 138.834 59.9585C138.834 53.7146 138.116 47.9168 136.669 42.5323C135.233 37.1804 133.101 32.2745 130.251 27.7711C124.507 18.7642 116.316 11.8895 105.678 7.13585C95.0068 2.38224 82.1493 0 67.0835 0H9.39843C4.22059 0 0 4.20971 0 9.39843V162.602C0 164.233 0.413357 165.756 1.15305 167.094C2.0124 168.693 3.32861 169.998 4.91677 170.858C6.24387 171.587 7.77764 172 9.39843 172H24.573V148.95V119.906H67.0726C70.5535 119.906 73.9148 119.786 77.1672 119.525C84.3792 118.96 91.0147 117.741 97.0736 115.892C100.076 114.968 102.937 113.891 105.656 112.662C116.306 107.832 124.497 100.946 130.229 92.0154ZM66.3547 98.5312H24.573V70.51V21.3749H66.3438C82.0622 21.3749 93.9843 24.7253 102.088 31.4478C106.287 34.9287 109.398 39.1493 111.421 44.1204C113.303 48.7435 114.25 54.0301 114.25 59.9476C114.25 62.2864 114.108 64.5054 113.815 66.6484C112.564 75.7422 108.658 83.0195 102.088 88.4475C100.739 89.5679 99.2818 90.5904 97.7154 91.5259C92.1895 94.8219 85.3365 96.9648 77.1563 97.9221C73.7842 98.3246 70.1619 98.5312 66.3329 98.5312H66.3547Z" fill="url(#paint1_linear_4_36)"/>
<defs>
<linearGradient id="paint0_linear_4_36" x1="172.011" y1="104.971" x2="0" y2="104.971" gradientUnits="userSpaceOnUse">
<stop stop-color="#FE7840" stop-opacity="0.9"/>
<stop offset="0.245192" stop-color="#FE7840"/>
</linearGradient>
<linearGradient id="paint1_linear_4_36" x1="0" y1="86" x2="138.834" y2="86" gradientUnits="userSpaceOnUse">
<stop offset="0.701923" stop-color="#C53E5C"/>
<stop offset="1" stop-color="#B34467"/>
</linearGradient>
</defs>
</svg>
