<svg width="598" height="160" viewBox="0 0 598 160" fill="none" xmlns="http://www.w3.org/2000/svg">
<path d="M158.13 149.363V91.4516C158.13 74.3572 154.47 61.2215 147.18 52.0245C141.57 44.9668 134.39 40.6182 125.63 38.9887C122.99 38.4989 120.19 38.2489 117.25 38.2489C111.76 38.2489 106.82 38.9887 102.44 40.4582C104.17 44.7068 105.04 49.5653 105.04 55.0035C105.04 57.1528 104.91 59.1921 104.64 61.1615C107.53 60.0119 110.83 59.4321 114.54 59.4321C119.49 59.4321 123.73 60.4617 127.22 62.5111C129.67 63.9506 131.77 65.89 133.51 68.3392C137.73 74.2672 139.84 82.6145 139.85 93.351V128.16C139.85 132.928 135.98 136.787 131.21 136.787H97.89C93.12 136.787 89.25 132.928 89.25 128.15V93.341C89.25 90.0021 89.45 86.8931 89.85 84.0141C84.77 87.0431 78.47 89.0124 70.95 89.8922V128.15C70.95 132.928 67.08 136.797 62.31 136.787H18.3V88.0428C18.3 78.3859 19.73 70.6084 22.58 64.6903V35C18.21 37.3292 14.41 40.5682 11.19 44.6869C3.74 54.2537 0 68.4191 0 87.213V149.363C0 150.842 0.37 152.252 1.05 153.481C1.84 154.951 3.05 156.151 4.51 156.94C5.74 157.62 7.14 158 8.64 158H149.48C154.25 158 158.12 154.131 158.12 149.363H158.13Z" fill="url(#paint0_linear_2_15)"/>
<path d="M119.72 84.59C123.81 78.24 126.3 70.92 127.22 62.63C127.49 60.21 127.63 57.71 127.63 55.12C127.63 49.38 126.97 44.05 125.64 39.1C124.32 34.18 122.36 29.67 119.74 25.53C114.46 17.25 106.93 10.93 97.15 6.56C87.34 2.19 75.52 0 61.67 0H8.64C3.88 0 0 3.87 0 8.64V149.48C0 150.98 0.38 152.38 1.06 153.61C1.85 155.08 3.06 156.28 4.52 157.07C5.74 157.74 7.15 158.12 8.64 158.12H22.59V136.93V110.23H61.66C64.86 110.23 67.95 110.12 70.94 109.88C77.57 109.36 83.67 108.24 89.24 106.54C92 105.69 94.63 104.7 97.13 103.57C106.92 99.13 114.45 92.8 119.72 84.59ZM61 90.58H22.59V64.82V19.65H60.99C75.44 19.65 86.4 22.73 93.85 28.91C97.71 32.11 100.57 35.99 102.43 40.56C104.16 44.81 105.03 49.67 105.03 55.11C105.03 57.26 104.9 59.3 104.63 61.27C103.48 69.63 99.89 76.32 93.85 81.31C92.61 82.34 91.27 83.28 89.83 84.14C84.75 87.17 78.45 89.14 70.93 90.02C67.83 90.39 64.5 90.58 60.98 90.58H61Z" fill="url(#paint1_linear_2_15)"/>
<path d="M232.94 42.15C241.57 42.15 248.94 43.61 255.07 46.54C261.19 49.47 265.88 53.65 269.13 59.08C272.38 64.51 274 71.12 274 78.89C274 83.47 273.31 88 271.92 92.47C270.53 96.94 268.33 101.02 265.29 104.69C262.25 108.36 258.23 111.3 253.23 113.48C248.22 115.66 242.15 116.75 235.02 116.75H218.09V158.13H201V42.15H232.95H232.94ZM235.02 100.3C239.28 100.3 242.85 99.58 245.72 98.14C248.6 96.7 250.86 94.86 252.51 92.63C254.16 90.39 255.33 88.08 256.02 85.68C256.71 83.28 257.06 81.13 257.06 79.21C257.06 77.08 256.71 74.82 256.02 72.42C255.33 70.02 254.18 67.79 252.59 65.71C250.99 63.63 248.81 61.93 246.04 60.6C243.27 59.27 239.81 58.6 235.66 58.6H218.09V100.3H235.02Z" fill="white"/>
<path d="M293.65 34H310.11V158.13H293.65V34Z" fill="white"/>
<path d="M363.14 159.73C356.85 159.73 351.16 158.42 346.05 155.82C340.94 153.22 336.89 149.3 333.91 144.08C330.93 138.86 329.44 132.42 329.44 124.75C329.44 117.08 331.01 110.69 334.15 105.26C337.29 99.83 341.44 95.65 346.61 92.72C351.77 89.79 357.39 88.33 363.46 88.33C369.85 88.33 375.09 89.69 379.2 92.4C383.3 95.12 386.52 98.29 388.87 101.9L387.75 104.46L389.35 91.2H404.53V158.14H388.07V141.37L389.83 145.36C389.4 146.21 388.5 147.41 387.11 148.95C385.72 150.5 383.89 152.12 381.6 153.82C379.31 155.53 376.65 156.94 373.61 158.05C370.57 159.16 367.08 159.73 363.15 159.73H363.14ZM367.62 146.31C371.13 146.31 374.28 145.67 377.05 144.39C379.82 143.11 382.16 141.3 384.08 138.96C386 136.62 387.33 133.85 388.07 130.65V116.75C387.22 113.77 385.78 111.19 383.76 109C381.74 106.82 379.31 105.09 376.49 103.81C373.67 102.53 370.55 101.89 367.14 101.89C363.31 101.89 359.79 102.82 356.6 104.69C353.4 106.56 350.85 109.14 348.93 112.44C347.01 115.74 346.05 119.58 346.05 123.94C346.05 128.3 347.03 131.88 349.01 135.28C350.98 138.69 353.62 141.38 356.92 143.35C360.22 145.32 363.79 146.31 367.62 146.31Z" fill="white"/>
<path d="M444.46 91.19L445.9 106.53L445.26 104.45C447.5 99.66 450.96 95.8 455.64 92.87C460.33 89.94 465.86 88.48 472.26 88.48C478.66 88.48 483.73 90.35 487.84 94.07C491.94 97.8 494.04 102.65 494.15 108.61V158.14H477.69V114.37C477.58 110.96 476.57 108.17 474.65 105.98C472.73 103.8 469.75 102.65 465.7 102.55C462.08 102.55 458.78 103.64 455.79 105.82C452.81 108 450.46 110.96 448.76 114.69C447.06 118.42 446.2 122.73 446.2 127.63V158.14H429.74V91.2H444.44L444.46 91.19Z" fill="white"/>
<path d="M553.89 42.15C565.6 42.15 574.84 44.55 581.61 49.34C588.37 54.13 591.75 61.48 591.75 71.39C591.75 77.78 590.29 83.27 587.36 87.85C584.43 92.43 580.38 95.97 575.22 98.47C570.05 100.97 563.96 102.38 556.93 102.7L554.37 93.59C562.57 93.8 569.89 95.22 576.34 97.82C582.78 100.43 587.89 104.05 591.68 108.68C595.46 113.31 597.35 118.82 597.35 125.22C597.35 131.08 596.26 136.11 594.08 140.32C591.9 144.53 588.97 147.94 585.29 150.54C581.62 153.15 577.46 155.07 572.83 156.29C568.2 157.52 563.38 158.13 558.37 158.13H523.06V42.15H553.89ZM556.93 92.31C562.89 92.31 567.26 90.61 570.03 87.2C572.8 83.79 574.18 79.75 574.18 75.06C574.18 69.31 572.4 65.13 568.83 62.52C565.26 59.91 560.55 58.61 554.69 58.61H540.15V92.32H556.92L556.93 92.31ZM557.57 142.32C561.72 142.32 565.48 141.71 568.83 140.48C572.18 139.26 574.85 137.39 576.82 134.89C578.79 132.39 579.78 129.22 579.78 125.38C579.78 121.12 578.63 117.79 576.35 115.4C574.06 113 571.13 111.3 567.56 110.29C563.99 109.28 560.29 108.77 556.46 108.77H540.17V142.32H557.58H557.57Z" fill="white"/>
<defs>
<linearGradient id="paint0_linear_2_15" x1="158.13" y1="96.5" x2="0" y2="96.5" gradientUnits="userSpaceOnUse">
<stop stop-color="#FE7840" stop-opacity="0.9"/>
<stop offset="0.245192" stop-color="#F7753E"/>
</linearGradient>
<linearGradient id="paint1_linear_2_15" x1="0" y1="79.06" x2="127.63" y2="79.06" gradientUnits="userSpaceOnUse">
<stop offset="0.701923" stop-color="#C53E5C"/>
<stop offset="1" stop-color="#B34467"/>
</linearGradient>
</defs>
</svg>
