<svg width="159" height="159" viewBox="0 0 159 159" fill="none" xmlns="http://www.w3.org/2000/svg">
<path d="M158.13 149.363V91.4516C158.13 74.3572 154.47 61.2215 147.18 52.0245C141.57 44.9668 134.39 40.6182 125.63 38.9887C122.99 38.4989 120.19 38.2489 117.25 38.2489C111.76 38.2489 106.82 38.9887 102.44 40.4582C104.17 44.7068 105.04 49.5653 105.04 55.0035C105.04 57.1528 104.91 59.1921 104.64 61.1615C107.53 60.0119 110.83 59.4321 114.54 59.4321C119.49 59.4321 123.73 60.4617 127.22 62.5111C129.67 63.9506 131.77 65.89 133.51 68.3392C137.73 74.2672 139.84 82.6145 139.85 93.351V128.16C139.85 132.928 135.98 136.787 131.21 136.787H97.89C93.12 136.787 89.25 132.928 89.25 128.15V93.341C89.25 90.0021 89.45 86.8931 89.85 84.0141C84.77 87.0431 78.47 89.0124 70.95 89.8922V128.15C70.95 132.928 67.08 136.797 62.31 136.787H18.3V88.0428C18.3 78.3859 19.73 70.6084 22.58 64.6903V35C18.21 37.3292 14.41 40.5682 11.19 44.6869C3.74 54.2537 0 68.4191 0 87.213V149.363C0 150.842 0.37 152.252 1.05 153.481C1.84 154.951 3.05 156.151 4.51 156.94C5.74 157.62 7.14 158 8.64 158H149.48C154.25 158 158.12 154.131 158.12 149.363H158.13Z" fill="url(#paint0_linear_1_11)"/>
<path d="M119.72 84.59C123.81 78.24 126.3 70.92 127.22 62.63C127.49 60.21 127.63 57.71 127.63 55.12C127.63 49.38 126.97 44.05 125.64 39.1C124.32 34.18 122.36 29.67 119.74 25.53C114.46 17.25 106.93 10.93 97.15 6.56C87.34 2.19 75.52 0 61.67 0H8.64C3.88 0 0 3.87 0 8.64V149.48C0 150.98 0.38 152.38 1.06 153.61C1.85 155.08 3.06 156.28 4.52 157.07C5.74 157.74 7.15 158.12 8.64 158.12H22.59V136.93V110.23H61.66C64.86 110.23 67.95 110.12 70.94 109.88C77.57 109.36 83.67 108.24 89.24 106.54C92 105.69 94.63 104.7 97.13 103.57C106.92 99.13 114.45 92.8 119.72 84.59ZM61 90.58H22.59V64.82V19.65H60.99C75.44 19.65 86.4 22.73 93.85 28.91C97.71 32.11 100.57 35.99 102.43 40.56C104.16 44.81 105.03 49.67 105.03 55.11C105.03 57.26 104.9 59.3 104.63 61.27C103.48 69.63 99.89 76.32 93.85 81.31C92.61 82.34 91.27 83.28 89.83 84.14C84.75 87.17 78.45 89.14 70.93 90.02C67.83 90.39 64.5 90.58 60.98 90.58H61Z" fill="url(#paint1_linear_1_11)"/>
<defs>
<linearGradient id="paint0_linear_1_11" x1="158.13" y1="96.5" x2="0" y2="96.5" gradientUnits="userSpaceOnUse">
<stop stop-color="#FE7840" stop-opacity="0.9"/>
<stop offset="0.245192" stop-color="#FE7840"/>
</linearGradient>
<linearGradient id="paint1_linear_1_11" x1="0" y1="79.06" x2="127.63" y2="79.06" gradientUnits="userSpaceOnUse">
<stop offset="0.701923" stop-color="#C53E5C"/>
<stop offset="1" stop-color="#B34467"/>
</linearGradient>
</defs>
</svg>
