<svg width="620" height="160" viewBox="0 0 620 160" fill="none" xmlns="http://www.w3.org/2000/svg">
<path d="M254.96 42.05C263.59 42.05 270.96 43.51 277.09 46.44C283.21 49.37 287.9 53.55 291.15 58.98C294.4 64.41 296.02 71.02 296.02 78.79C296.02 83.37 295.33 87.9 293.94 92.37C292.55 96.84 290.35 100.92 287.31 104.59C284.27 108.26 280.25 111.2 275.25 113.38C270.24 115.56 264.17 116.65 257.04 116.65H240.11V158.03H223.02V42.05H254.97H254.96ZM257.04 100.2C261.3 100.2 264.87 99.48 267.74 98.04C270.62 96.6 272.88 94.76 274.53 92.53C276.18 90.29 277.35 87.98 278.04 85.58C278.73 83.18 279.08 81.03 279.08 79.11C279.08 76.98 278.73 74.72 278.04 72.32C277.35 69.92 276.2 67.69 274.61 65.61C273.01 63.53 270.83 61.83 268.06 60.5C265.29 59.17 261.83 58.5 257.68 58.5H240.11V100.2H257.04Z" fill="black"/>
<path d="M315.67 33.9H332.13V158.03H315.67V33.9Z" fill="black"/>
<path d="M385.16 159.63C378.87 159.63 373.18 158.32 368.07 155.72C362.96 153.12 358.91 149.2 355.93 143.98C352.95 138.76 351.46 132.32 351.46 124.65C351.46 116.98 353.03 110.59 356.17 105.16C359.31 99.73 363.46 95.55 368.63 92.62C373.79 89.69 379.41 88.23 385.48 88.23C391.87 88.23 397.11 89.59 401.22 92.3C405.32 95.02 408.54 98.19 410.89 101.8L409.77 104.36L411.37 91.1H426.55V158.04H410.09V141.27L411.85 145.26C411.42 146.11 410.52 147.31 409.13 148.85C407.74 150.4 405.91 152.02 403.62 153.72C401.33 155.43 398.67 156.84 395.63 157.95C392.59 159.06 389.1 159.63 385.17 159.63H385.16ZM389.64 146.21C393.15 146.21 396.3 145.57 399.07 144.29C401.84 143.01 404.18 141.2 406.1 138.86C408.02 136.52 409.35 133.75 410.09 130.55V116.65C409.24 113.67 407.8 111.09 405.78 108.9C403.76 106.72 401.33 104.99 398.51 103.71C395.69 102.43 392.57 101.79 389.16 101.79C385.33 101.79 381.81 102.72 378.62 104.59C375.42 106.46 372.87 109.04 370.95 112.34C369.03 115.64 368.07 119.48 368.07 123.84C368.07 128.2 369.05 131.78 371.03 135.18C373 138.59 375.64 141.28 378.94 143.25C382.24 145.22 385.81 146.21 389.64 146.21Z" fill="black"/>
<path d="M466.48 91.09L467.92 106.43L467.28 104.35C469.52 99.56 472.98 95.7 477.66 92.77C482.35 89.84 487.88 88.38 494.28 88.38C500.68 88.38 505.75 90.25 509.86 93.97C513.96 97.7 516.06 102.55 516.17 108.51V158.04H499.71V114.27C499.6 110.86 498.59 108.07 496.67 105.88C494.75 103.7 491.77 102.55 487.72 102.45C484.1 102.45 480.8 103.54 477.81 105.72C474.83 107.9 472.48 110.86 470.78 114.59C469.08 118.32 468.22 122.63 468.22 127.53V158.04H451.76V91.1H466.46L466.48 91.09Z" fill="black"/>
<path d="M575.91 42.05C587.62 42.05 596.86 44.45 603.63 49.24C610.39 54.03 613.77 61.38 613.77 71.29C613.77 77.68 612.31 83.17 609.38 87.75C606.45 92.33 602.4 95.87 597.24 98.37C592.07 100.87 585.98 102.28 578.95 102.6L576.39 93.49C584.59 93.7 591.91 95.12 598.36 97.72C604.8 100.33 609.91 103.95 613.7 108.58C617.48 113.21 619.37 118.72 619.37 125.12C619.37 130.98 618.28 136.01 616.1 140.22C613.92 144.43 610.99 147.84 607.31 150.44C603.64 153.05 599.48 154.97 594.85 156.19C590.22 157.42 585.4 158.03 580.39 158.03H545.08V42.05H575.91ZM578.95 92.21C584.91 92.21 589.28 90.51 592.05 87.1C594.82 83.69 596.2 79.65 596.2 74.96C596.2 69.21 594.42 65.03 590.85 62.42C587.28 59.81 582.57 58.51 576.71 58.51H562.17V92.22H578.94L578.95 92.21ZM579.59 142.22C583.74 142.22 587.5 141.61 590.85 140.38C594.2 139.16 596.87 137.29 598.84 134.79C600.81 132.29 601.8 129.12 601.8 125.28C601.8 121.02 600.65 117.69 598.37 115.3C596.08 112.9 593.15 111.2 589.58 110.19C586.01 109.18 582.31 108.67 578.48 108.67H562.19V142.22H579.6H579.59Z" fill="black"/>
<path d="M158.13 149.363V91.4516C158.13 74.3572 154.47 61.2215 147.18 52.0245C141.57 44.9668 134.39 40.6182 125.63 38.9887C122.99 38.4989 120.19 38.2489 117.25 38.2489C111.76 38.2489 106.82 38.9887 102.44 40.4582C104.17 44.7068 105.04 49.5653 105.04 55.0035C105.04 57.1528 104.91 59.1921 104.64 61.1615C107.53 60.0119 110.83 59.4321 114.54 59.4321C119.49 59.4321 123.73 60.4617 127.22 62.5111C129.67 63.9506 131.77 65.89 133.51 68.3392C137.73 74.2672 139.84 82.6145 139.85 93.351V128.16C139.85 132.928 135.98 136.787 131.21 136.787H97.89C93.12 136.787 89.25 132.928 89.25 128.15V93.341C89.25 90.0021 89.45 86.8931 89.85 84.0141C84.77 87.0431 78.47 89.0124 70.95 89.8922V128.15C70.95 132.928 67.08 136.797 62.31 136.787H18.3V88.0428C18.3 78.3859 19.73 70.6084 22.58 64.6904V35C18.21 37.3292 14.41 40.5682 11.19 44.6869C3.74 54.2537 0 68.4191 0 87.213V149.363C0 150.842 0.37 152.252 1.05 153.481C1.84 154.951 3.05 156.151 4.51 156.94C5.74 157.62 7.14 158 8.64 158H149.48C154.25 158 158.12 154.131 158.12 149.363H158.13Z" fill="url(#paint0_linear_6_22)"/>
<path d="M119.72 84.59C123.81 78.24 126.3 70.92 127.22 62.63C127.49 60.21 127.63 57.71 127.63 55.12C127.63 49.38 126.97 44.05 125.64 39.1C124.32 34.18 122.36 29.67 119.74 25.53C114.46 17.25 106.93 10.93 97.15 6.56C87.34 2.19 75.52 0 61.67 0H8.64C3.88 0 0 3.87 0 8.64V149.48C0 150.98 0.38 152.38 1.06 153.61C1.85 155.08 3.06 156.28 4.52 157.07C5.74 157.74 7.15 158.12 8.64 158.12H22.59V110.23H61.66C64.86 110.23 67.95 110.12 70.94 109.88C77.57 109.36 83.67 108.24 89.24 106.54C92 105.69 94.63 104.7 97.13 103.57C106.92 99.13 114.45 92.8 119.72 84.59ZM61 90.58H22.59V19.65H60.99C75.44 19.65 86.4 22.73 93.85 28.91C97.71 32.11 100.57 35.99 102.43 40.56C104.16 44.81 105.03 49.67 105.03 55.11C105.03 57.26 104.9 59.3 104.63 61.27C103.48 69.63 99.89 76.32 93.85 81.31C92.61 82.34 91.27 83.28 89.83 84.14C84.75 87.17 78.45 89.14 70.93 90.02C67.83 90.39 64.5 90.58 60.98 90.58H61Z" fill="url(#paint1_linear_6_22)"/>
<defs>
<linearGradient id="paint0_linear_6_22" x1="597.35" y1="79.865" x2="0" y2="79.865" gradientUnits="userSpaceOnUse">
<stop stop-color="#FE7840" stop-opacity="0.9"/>
<stop offset="0.245192" stop-color="#F7753E"/>
</linearGradient>
<linearGradient id="paint1_linear_6_22" x1="0" y1="79.865" x2="597.35" y2="79.865" gradientUnits="userSpaceOnUse">
<stop offset="0.701923" stop-color="#C53E5C"/>
<stop offset="1" stop-color="#B34467"/>
</linearGradient>
</defs>
</svg>
