<svg width="397" height="126" viewBox="0 0 397 126" fill="none" xmlns="http://www.w3.org/2000/svg">
<path d="M31.94 8.14999C40.57 8.14999 47.94 9.60999 54.07 12.54C60.19 15.47 64.88 19.65 68.13 25.08C71.38 30.51 73 37.12 73 44.89C73 49.47 72.31 54 70.92 58.47C69.53 62.94 67.33 67.02 64.29 70.69C61.25 74.36 57.23 77.3 52.23 79.48C47.22 81.66 41.15 82.75 34.02 82.75H17.09V124.13H0V8.14999H31.95H31.94ZM34.02 66.3C38.28 66.3 41.85 65.58 44.72 64.14C47.6 62.7 49.86 60.86 51.51 58.63C53.16 56.39 54.33 54.08 55.02 51.68C55.71 49.28 56.06 47.13 56.06 45.21C56.06 43.08 55.71 40.82 55.02 38.42C54.33 36.02 53.18 33.79 51.59 31.71C49.99 29.63 47.81 27.93 45.04 26.6C42.27 25.27 38.81 24.6 34.66 24.6H17.09V66.3H34.02Z" fill="white"/>
<path d="M92.65 0H109.11V124.13H92.65V0Z" fill="white"/>
<path d="M162.14 125.73C155.85 125.73 150.16 124.42 145.05 121.82C139.94 119.22 135.89 115.3 132.91 110.08C129.93 104.86 128.44 98.42 128.44 90.75C128.44 83.08 130.01 76.69 133.15 71.26C136.29 65.83 140.44 61.65 145.61 58.72C150.77 55.79 156.39 54.33 162.46 54.33C168.85 54.33 174.09 55.69 178.2 58.4C182.3 61.12 185.52 64.29 187.87 67.9L186.75 70.46L188.35 57.2H203.53V124.14H187.07V107.37L188.83 111.36C188.4 112.21 187.5 113.41 186.11 114.95C184.72 116.5 182.89 118.12 180.6 119.82C178.31 121.53 175.65 122.94 172.61 124.05C169.57 125.16 166.08 125.73 162.15 125.73H162.14ZM166.62 112.31C170.13 112.31 173.28 111.67 176.05 110.39C178.82 109.11 181.16 107.3 183.08 104.96C185 102.62 186.33 99.85 187.07 96.65V82.75C186.22 79.77 184.78 77.19 182.76 75C180.74 72.82 178.31 71.09 175.49 69.81C172.67 68.53 169.55 67.89 166.14 67.89C162.31 67.89 158.79 68.82 155.6 70.69C152.4 72.56 149.85 75.14 147.93 78.44C146.01 81.74 145.05 85.58 145.05 89.94C145.05 94.3 146.03 97.88 148.01 101.28C149.98 104.69 152.62 107.38 155.92 109.35C159.22 111.32 162.79 112.31 166.62 112.31Z" fill="white"/>
<path d="M243.46 57.19L244.9 72.53L244.26 70.45C246.5 65.66 249.96 61.8 254.64 58.87C259.33 55.94 264.86 54.48 271.26 54.48C277.66 54.48 282.73 56.35 286.84 60.07C290.94 63.8 293.04 68.65 293.15 74.61V124.14H276.69V80.37C276.58 76.96 275.57 74.17 273.65 71.98C271.73 69.8 268.75 68.65 264.7 68.55C261.08 68.55 257.78 69.64 254.79 71.82C251.81 74 249.46 76.96 247.76 80.69C246.06 84.42 245.2 88.73 245.2 93.63V124.14H228.74V57.2H243.44L243.46 57.19Z" fill="white"/>
<path d="M352.89 8.14999C364.6 8.14999 373.84 10.55 380.61 15.34C387.37 20.13 390.75 27.48 390.75 37.39C390.75 43.78 389.29 49.27 386.36 53.85C383.43 58.43 379.38 61.97 374.22 64.47C369.05 66.97 362.96 68.38 355.93 68.7L353.37 59.59C361.57 59.8 368.89 61.22 375.34 63.82C381.78 66.43 386.89 70.05 390.68 74.68C394.46 79.31 396.35 84.82 396.35 91.22C396.35 97.08 395.26 102.11 393.08 106.32C390.9 110.53 387.97 113.94 384.29 116.54C380.62 119.15 376.46 121.07 371.83 122.29C367.2 123.52 362.38 124.13 357.37 124.13H322.06V8.14999H352.89ZM355.93 58.31C361.89 58.31 366.26 56.61 369.03 53.2C371.8 49.79 373.18 45.75 373.18 41.06C373.18 35.31 371.4 31.13 367.83 28.52C364.26 25.91 359.55 24.61 353.69 24.61H339.15V58.32H355.92L355.93 58.31ZM356.57 108.32C360.72 108.32 364.48 107.71 367.83 106.48C371.18 105.26 373.85 103.39 375.82 100.89C377.79 98.39 378.78 95.22 378.78 91.38C378.78 87.12 377.63 83.79 375.35 81.4C373.06 79 370.13 77.3 366.56 76.29C362.99 75.28 359.29 74.77 355.46 74.77H339.17V108.32H356.58H356.57Z" fill="white"/>
</svg>
