<?xml version="1.0" encoding="UTF-8"?>
<svg id="Layer_2" data-name="Layer 2" xmlns="http://www.w3.org/2000/svg" viewBox="0 0 158.14 158.14">
  <defs>
    <style>
      .cls-1 {
        fill: #fe7840;
      }

      .cls-2 {
        fill: #e22140;
      }
    </style>
  </defs>
  <g id="Layer_1-2" data-name="Layer 1">
    <g>
      <path class="cls-1" d="M158.14,149.5v-57.93c0-17.1-3.66-30.24-10.95-39.44-5.61-7.06-12.79-11.41-21.55-13.04-2.64-.49-5.44-.74-8.38-.74-5.49,0-10.43.74-14.81,2.21,1.73,4.25,2.6,9.11,2.6,14.55,0,2.15-.13,4.19-.4,6.16,2.89-1.15,6.19-1.73,9.9-1.73,4.95,0,9.19,1.03,12.68,3.08,2.45,1.44,4.55,3.38,6.29,5.83,4.22,5.93,6.33,14.28,6.34,25.02v34.82c0,4.77-3.87,8.63-8.64,8.63h-33.32c-4.77,0-8.64-3.86-8.64-8.64v-34.82c0-3.34.2-6.45.6-9.33-5.08,3.03-11.38,5-18.9,5.88v38.27c0,4.78-3.87,8.65-8.64,8.64H22.59s-4.28,0-4.28,0v-48.76c0-9.66,1.43-17.44,4.28-23.36v-29.7c-4.37,2.33-8.17,5.57-11.39,9.69C3.75,54.36.01,68.53.01,87.33v62.17c0,1.48.37,2.89,1.05,4.12.79,1.47,2,2.67,3.46,3.46,1.23.68,2.63,1.06,4.13,1.06h140.84c4.77,0,8.64-3.87,8.64-8.64Z"/>
      <path class="cls-2" d="M119.72,84.59c4.09-6.35,6.58-13.67,7.5-21.96.27-2.42.41-4.92.41-7.51,0-5.74-.66-11.07-1.99-16.02-1.32-4.92-3.28-9.43-5.9-13.57-5.28-8.28-12.81-14.6-22.59-18.97C87.34,2.19,75.52,0,61.67,0H8.64C3.88,0,0,3.87,0,8.64v140.84c0,1.5.38,2.9,1.06,4.13.79,1.47,2,2.67,3.46,3.46,1.22.67,2.63,1.05,4.12,1.05h13.95v-21.19s0-26.7,0-26.7h39.07c3.2,0,6.29-.11,9.28-.35,6.63-.52,12.73-1.64,18.3-3.34,2.76-.85,5.39-1.84,7.89-2.97,9.79-4.44,17.32-10.77,22.59-18.98ZM61,90.58H22.59s0-25.76,0-25.76V19.65s38.4,0,38.4,0c14.45,0,25.41,3.08,32.86,9.26,3.86,3.2,6.72,7.08,8.58,11.65,1.73,4.25,2.6,9.11,2.6,14.55,0,2.15-.13,4.19-.4,6.16-1.15,8.36-4.74,15.05-10.78,20.04-1.24,1.03-2.58,1.97-4.02,2.83-5.08,3.03-11.38,5-18.9,5.88-3.1.37-6.43.56-9.95.56Z"/>
    </g>
  </g>
</svg>